<?xml version="1.0" encoding="utf-8"?>
<!-- Generator: Adobe Illustrator 19.0.0, SVG Export Plug-In . SVG Version: 6.00 Build 0)  -->
<svg version="1.1" id="Capa_1" xmlns="http://www.w3.org/2000/svg" xmlns:xlink="http://www.w3.org/1999/xlink" x="0px" y="0px"
	 viewBox="-585 935.9 512 512" style="enable-background:new -585 935.9 512 512;" xml:space="preserve">
<style type="text/css">
	.st0{fill:#CCCCCC;}
</style>
<g>
	<g>
		<path class="st0" d="M-154.2,1199.4h43.3c3,7.2,10,12.2,18.2,12.2c10.9,0,19.7-8.8,19.7-19.7c0-10.9-8.8-19.7-19.7-19.7
			c-8.2,0-15.3,5.1-18.2,12.2h-43.3v-65.6h43.3c3,7.2,10,12.2,18.2,12.2c10.9,0,19.7-8.8,19.7-19.7c0-10.9-8.8-19.7-19.7-19.7
			c-8.2,0-15.3,5.1-18.2,12.2h-43.3v-79.2c0-4.1-3.4-7.5-7.5-7.5h-32.2c-4.1,0-7.5,3.4-7.5,7.5c0,4.1,3.4,7.5,7.5,7.5h24.7v79.2v0v0
			v80.6v0v0v80.6v0v0v79.2h-319.6v-79.2v0v0v-80.6v0v0v-80.6v0v0v-79.2h265.4c4.1,0,7.5-3.4,7.5-7.5c0-4.1-3.4-7.5-7.5-7.5h-17.5
			v-43.3c7.2-3,12.2-10,12.2-18.2c0-10.9-8.8-19.7-19.7-19.7s-19.7,8.8-19.7,19.7c0,8.2,5.1,15.3,12.2,18.2v43.2h-65.6v-43.3
			c7.2-3,12.2-10,12.2-18.2c0-10.9-8.8-19.7-19.7-19.7c-10.9,0-19.7,8.8-19.7,19.7c0,8.2,5.1,15.3,12.2,18.2v43.2h-65.6v-43.3
			c7.2-3,12.2-10,12.2-18.2c0-10.9-8.8-19.7-19.7-19.7s-19.7,8.8-19.7,19.7c0,8.2,5.1,15.3,12.2,18.2v43.2h-79.2
			c-4.1,0-7.5,3.4-7.5,7.5v79.2h-43.3c-3-7.2-10-12.2-18.2-12.2c-10.9,0-19.7,8.8-19.7,19.7c0,10.9,8.8,19.7,19.7,19.7
			c8.2,0,15.3-5.1,18.2-12.2h43.3v65.6h-43.3c-3-7.2-10-12.2-18.2-12.2c-10.9,0-19.7,8.8-19.7,19.7c0,10.9,8.8,19.7,19.7,19.7
			c8.2,0,15.3-5.1,18.2-12.2h43.3v65.6h-43.3c-3-7.2-10-12.2-18.2-12.2c-10.9,0-19.7,8.8-19.7,19.7c0,10.9,8.8,19.7,19.7,19.7
			c8.2,0,15.3-5.1,18.2-12.2h43.3v79.2c0,4.1,3.4,7.5,7.5,7.5h79.2v43.3c-7.2,3-12.2,10-12.2,18.2c0,10.9,8.8,19.7,19.7,19.7
			s19.7-8.8,19.7-19.7c0-8.2-5.1-15.3-12.2-18.2v-43.3h65.6v43.3c-7.2,3-12.2,10-12.2,18.2c0,10.9,8.8,19.7,19.7,19.7
			s19.7-8.8,19.7-19.7c0-8.2-5.1-15.3-12.2-18.2v-43.2h65.6v43.3c-7.2,3-12.2,10-12.2,18.2c0,10.9,8.8,19.7,19.7,19.7
			c10.9,0,19.7-8.8,19.7-19.7c0-8.2-5.1-15.3-12.2-18.2v-43.2h79.2c4.1,0,7.5-3.4,7.5-7.5V1280h43.3c3,7.2,10,12.2,18.2,12.2
			c10.9,0,19.7-8.8,19.7-19.7c0-10.9-8.8-19.7-19.7-19.7c-8.2,0-15.3,5.1-18.2,12.2h-43.3L-154.2,1199.4L-154.2,1199.4z
			 M-92.7,1187.2c2.6,0,4.7,2.1,4.7,4.7c0,2.6-2.1,4.7-4.7,4.7s-4.7-2.1-4.7-4.7C-97.4,1189.3-95.3,1187.2-92.7,1187.2z
			 M-92.7,1106.6c2.6,0,4.7,2.1,4.7,4.7s-2.1,4.7-4.7,4.7s-4.7-2.1-4.7-4.7S-95.3,1106.6-92.7,1106.6z M-248.4,950.9
			c2.6,0,4.7,2.1,4.7,4.7c0,2.6-2.1,4.7-4.7,4.7c0,0,0,0,0,0c0,0,0,0,0,0c-2.6,0-4.7-2.1-4.7-4.7
			C-253.1,953.1-251,950.9-248.4,950.9z M-329,950.9c2.6,0,4.7,2.1,4.7,4.7c0,2.6-2.1,4.7-4.7,4.7c0,0,0,0,0,0c0,0,0,0,0,0
			c-2.6,0-4.7-2.1-4.7-4.7C-333.7,953.1-331.6,950.9-329,950.9z M-409.6,950.9c2.6,0,4.7,2.1,4.7,4.7c0,2.6-2.1,4.7-4.7,4.7
			c0,0,0,0,0,0c0,0,0,0,0,0c-2.6,0-4.7-2.1-4.7-4.7C-414.3,953.1-412.2,950.9-409.6,950.9z M-565.3,1116c-2.6,0-4.7-2.1-4.7-4.7
			s2.1-4.7,4.7-4.7s4.7,2.1,4.7,4.7S-562.7,1116-565.3,1116z M-565.3,1196.6c-2.6,0-4.7-2.1-4.7-4.7c0-2.6,2.1-4.7,4.7-4.7
			s4.7,2.1,4.7,4.7C-560.6,1194.5-562.7,1196.6-565.3,1196.6z M-565.3,1277.3c-2.6,0-4.7-2.1-4.7-4.7s2.1-4.7,4.7-4.7
			s4.7,2.1,4.7,4.7C-560.6,1275.1-562.7,1277.3-565.3,1277.3z M-409.6,1432.9c-2.6,0-4.7-2.1-4.7-4.7c0-2.6,2.1-4.7,4.7-4.7
			c0,0,0,0,0,0c0,0,0,0,0,0c2.6,0,4.7,2.1,4.7,4.7C-404.9,1430.8-407,1432.9-409.6,1432.9z M-329,1432.9c-2.6,0-4.7-2.1-4.7-4.7
			c0-2.6,2.1-4.7,4.7-4.7c0,0,0,0,0,0c0,0,0,0,0,0c2.6,0,4.7,2.1,4.7,4.7C-324.3,1430.8-326.4,1432.9-329,1432.9z M-248.4,1432.9
			c-2.6,0-4.7-2.1-4.7-4.7c0-2.6,2.1-4.7,4.7-4.7c0,0,0,0,0,0c0,0,0,0,0,0c2.6,0,4.7,2.1,4.7,4.7
			C-243.7,1430.8-245.8,1432.9-248.4,1432.9z M-92.7,1267.8c2.6,0,4.7,2.1,4.7,4.7c0,2.6-2.1,4.7-4.7,4.7s-4.7-2.1-4.7-4.7
			C-97.4,1269.9-95.3,1267.8-92.7,1267.8z"/>
	</g>
</g>
<g>
	<g>
		<path class="st0" d="M-186.4,1041.9h-285.1c-4.1,0-7.5,3.4-7.5,7.5v208.3c0,4.1,3.4,7.5,7.5,7.5c4.1,0,7.5-3.4,7.5-7.5v-200.8
			h270.1V1327h-270.1v-39.8c0-4.1-3.4-7.5-7.5-7.5c-4.1,0-7.5,3.4-7.5,7.5v47.3c0,4.1,3.4,7.5,7.5,7.5h285.1c4.1,0,7.5-3.4,7.5-7.5
			v-285.1C-178.9,1045.2-182.3,1041.9-186.4,1041.9z"/>
	</g>
</g>
<g>
	<g>
		<path class="st0" d="M-277.7,1133.1h-102.6c-4.1,0-7.5,3.4-7.5,7.5v102.6c0,4.1,3.4,7.5,7.5,7.5h39.5c4.1,0,7.5-3.4,7.5-7.5
			c0-4.1-3.4-7.5-7.5-7.5h-32v-87.6h87.6v87.6h-26c-4.1,0-7.5,3.4-7.5,7.5c0,4.1,3.4,7.5,7.5,7.5h33.5c4.1,0,7.5-3.4,7.5-7.5v-102.6
			C-270.2,1136.5-273.5,1133.1-277.7,1133.1z"/>
	</g>
</g>
<g>
	<g>
		<path class="st0" d="M-421.8,1079.6h-12.1c-4.1,0-7.5,3.4-7.5,7.5v12.1c0,4.1,3.4,7.5,7.5,7.5h12.1c4.1,0,7.5-3.4,7.5-7.5v-12.1
			C-414.3,1082.9-417.7,1079.6-421.8,1079.6z"/>
	</g>
</g>
<g>
	<g>
		<path class="st0" d="M-382.3,1079.6h-12.1c-4.1,0-7.5,3.4-7.5,7.5v12.1c0,4.1,3.4,7.5,7.5,7.5h12.1c4.1,0,7.5-3.4,7.5-7.5v-12.1
			C-374.8,1082.9-378.1,1079.6-382.3,1079.6z"/>
	</g>
</g>
<g>
	<g>
		<path class="st0" d="M-342.7,1079.6h-12.1c-4.1,0-7.5,3.4-7.5,7.5v12.1c0,4.1,3.4,7.5,7.5,7.5h12.1c4.1,0,7.5-3.4,7.5-7.5v-12.1
			C-335.2,1082.9-338.6,1079.6-342.7,1079.6z"/>
	</g>
</g>
<g>
	<g>
		<path class="st0" d="M-303.2,1079.6h-12.1c-4.1,0-7.5,3.4-7.5,7.5v12.1c0,4.1,3.4,7.5,7.5,7.5h12.1c4.1,0,7.5-3.4,7.5-7.5v-12.1
			C-295.7,1082.9-299.1,1079.6-303.2,1079.6z"/>
	</g>
</g>
<g>
	<g>
		<path class="st0" d="M-263.7,1079.6h-12.1c-4.1,0-7.5,3.4-7.5,7.5v12.1c0,4.1,3.4,7.5,7.5,7.5h12.1c4.1,0,7.5-3.4,7.5-7.5v-12.1
			C-256.2,1082.9-259.5,1079.6-263.7,1079.6z"/>
	</g>
</g>
<g>
	<g>
		<path class="st0" d="M-224.1,1079.6h-12.1c-4.1,0-7.5,3.4-7.5,7.5v12.1c0,4.1,3.4,7.5,7.5,7.5h12.1c4.1,0,7.5-3.4,7.5-7.5v-12.1
			C-216.6,1082.9-220,1079.6-224.1,1079.6z"/>
	</g>
</g>
<g>
	<g>
		<path class="st0" d="M-421.8,1277.3h-12.1c-4.1,0-7.5,3.4-7.5,7.5v12.1c0,4.1,3.4,7.5,7.5,7.5h12.1c4.1,0,7.5-3.4,7.5-7.5v-12.1
			C-414.3,1280.6-417.7,1277.3-421.8,1277.3z"/>
	</g>
</g>
<g>
	<g>
		<path class="st0" d="M-382.3,1277.3h-12.1c-4.1,0-7.5,3.4-7.5,7.5v12.1c0,4.1,3.4,7.5,7.5,7.5h12.1c4.1,0,7.5-3.4,7.5-7.5v-12.1
			C-374.8,1280.6-378.1,1277.3-382.3,1277.3z"/>
	</g>
</g>
<g>
	<g>
		<path class="st0" d="M-342.7,1277.3h-12.1c-4.1,0-7.5,3.4-7.5,7.5v12.1c0,4.1,3.4,7.5,7.5,7.5h12.1c4.1,0,7.5-3.4,7.5-7.5v-12.1
			C-335.2,1280.6-338.6,1277.3-342.7,1277.3z"/>
	</g>
</g>
<g>
	<g>
		<path class="st0" d="M-303.2,1277.3h-12.1c-4.1,0-7.5,3.4-7.5,7.5v12.1c0,4.1,3.4,7.5,7.5,7.5h12.1c4.1,0,7.5-3.4,7.5-7.5v-12.1
			C-295.7,1280.6-299.1,1277.3-303.2,1277.3z"/>
	</g>
</g>
<g>
	<g>
		<path class="st0" d="M-263.7,1277.3h-12.1c-4.1,0-7.5,3.4-7.5,7.5v12.1c0,4.1,3.4,7.5,7.5,7.5h12.1c4.1,0,7.5-3.4,7.5-7.5v-12.1
			C-256.2,1280.6-259.5,1277.3-263.7,1277.3z"/>
	</g>
</g>
<g>
	<g>
		<path class="st0" d="M-224.1,1277.3h-12.1c-4.1,0-7.5,3.4-7.5,7.5v12.1c0,4.1,3.4,7.5,7.5,7.5h12.1c4.1,0,7.5-3.4,7.5-7.5v-12.1
			C-216.6,1280.6-220,1277.3-224.1,1277.3z"/>
	</g>
</g>
<g>
	<g>
		<path class="st0" d="M-421.8,1119.1h-12.1c-4.1,0-7.5,3.4-7.5,7.5v12.1c0,4.1,3.4,7.5,7.5,7.5h12.1c4.1,0,7.5-3.4,7.5-7.5v-12.1
			C-414.3,1122.5-417.7,1119.1-421.8,1119.1z"/>
	</g>
</g>
<g>
	<g>
		<path class="st0" d="M-421.8,1158.6h-12.1c-4.1,0-7.5,3.4-7.5,7.5v12.1c0,4.1,3.4,7.5,7.5,7.5h12.1c4.1,0,7.5-3.4,7.5-7.5v-12.1
			C-414.3,1162-417.7,1158.6-421.8,1158.6z"/>
	</g>
</g>
<g>
	<g>
		<path class="st0" d="M-421.8,1198.2h-12.1c-4.1,0-7.5,3.4-7.5,7.5v12.1c0,4.1,3.4,7.5,7.5,7.5h12.1c4.1,0,7.5-3.4,7.5-7.5v-12.1
			C-414.3,1201.5-417.7,1198.2-421.8,1198.2z"/>
	</g>
</g>
<g>
	<g>
		<path class="st0" d="M-421.8,1237.7h-12.1c-4.1,0-7.5,3.4-7.5,7.5v12.1c0,4.1,3.4,7.5,7.5,7.5h12.1c4.1,0,7.5-3.4,7.5-7.5v-12.1
			C-414.3,1241.1-417.7,1237.7-421.8,1237.7z"/>
	</g>
</g>
<g>
	<g>
		<path class="st0" d="M-224.1,1119.1h-12.1c-4.1,0-7.5,3.4-7.5,7.5v12.1c0,4.1,3.4,7.5,7.5,7.5h12.1c4.1,0,7.5-3.4,7.5-7.5v-12.1
			C-216.6,1122.5-220,1119.1-224.1,1119.1z"/>
	</g>
</g>
<g>
	<g>
		<path class="st0" d="M-224.1,1158.6h-12.1c-4.1,0-7.5,3.4-7.5,7.5v12.1c0,4.1,3.4,7.5,7.5,7.5h12.1c4.1,0,7.5-3.4,7.5-7.5v-12.1
			C-216.6,1162-220,1158.6-224.1,1158.6z"/>
	</g>
</g>
<g>
	<g>
		<path class="st0" d="M-224.1,1198.2h-12.1c-4.1,0-7.5,3.4-7.5,7.5v12.1c0,4.1,3.4,7.5,7.5,7.5h12.1c4.1,0,7.5-3.4,7.5-7.5v-12.1
			C-216.6,1201.5-220,1198.2-224.1,1198.2z"/>
	</g>
</g>
<g>
	<g>
		<path class="st0" d="M-224.1,1237.7h-12.1c-4.1,0-7.5,3.4-7.5,7.5v12.1c0,4.1,3.4,7.5,7.5,7.5h12.1c4.1,0,7.5-3.4,7.5-7.5v-12.1
			C-216.6,1241.1-220,1237.7-224.1,1237.7z"/>
	</g>
</g>
</svg>
