<?xml version="1.0" encoding="utf-8"?>
<!-- Generator: Adobe Illustrator 19.0.0, SVG Export Plug-In . SVG Version: 6.00 Build 0)  -->
<svg version="1.1" id="Capa_1" xmlns="http://www.w3.org/2000/svg" xmlns:xlink="http://www.w3.org/1999/xlink" x="0px" y="0px"
	 viewBox="-566 916.1 550.8 550.8" style="enable-background:new -566 916.1 550.8 550.8;" xml:space="preserve">
<style type="text/css">
	.st0{fill:#CCCCCC;}
</style>
<g>
	<g>
		<path class="st0" d="M-179.6,1331.6c-5.6,0-9.4,0.6-11.4,1.1v35.9c2.4,0.5,5.2,0.7,9.2,0.7c14.7,0,23.7-7.4,23.7-19.9
			C-158.1,1338.3-165.9,1331.6-179.6,1331.6z"/>
		<path class="st0" d="M-284.6,1331.6c-5.6,0-9.4,0.6-11.4,1.1v35.9c2.4,0.5,5.2,0.7,9.2,0.7c14.6,0,23.7-7.4,23.7-19.9
			C-263.1,1338.3-270.9,1331.6-284.6,1331.6z"/>
		<path class="st0" d="M-90.9,1048.1c0-2.5-0.8-5-2.6-7l-106.2-121.3c0,0-0.1,0-0.1-0.1c-0.6-0.7-1.4-1.3-2.1-1.8
			c-0.2-0.2-0.5-0.3-0.7-0.4c-0.7-0.4-1.4-0.7-2.1-0.9c-0.2-0.1-0.4-0.1-0.6-0.2c-0.8-0.2-1.6-0.3-2.5-0.3h-261
			c-11.9,0-21.6,9.7-21.6,21.6v507.6c0,11.9,9.7,21.6,21.6,21.6h356.4c11.9,0,21.6-9.7,21.6-21.6v-396
			C-90.8,1048.9-90.9,1048.5-90.9,1048.1z M-368.5,1412.6c8.3,0,17.5-1.8,22.9-4l4.2,21.5c-5.1,2.5-16.5,5.3-31.3,5.3
			c-42.1,0-63.8-26.2-63.8-60.9c0-41.6,29.6-64.7,66.5-64.7c14.3,0,25.1,2.9,30,5.4l-5.6,21.9c-5.6-2.4-13.4-4.5-23.1-4.5
			c-21.9,0-38.9,13.2-38.9,40.3C-407.6,1397.2-393.1,1412.6-368.5,1412.6z M-247,1377.7c-9.4,8.9-23.3,12.8-39.6,12.8
			c-3.6,0-6.9-0.2-9.4-0.5v43.6h-27.3v-120.2c8.5-1.4,20.4-2.5,37.2-2.5c17,0,29.1,3.3,37.2,9.8c7.8,6.1,13,16.3,13,28.2
			C-235.8,1360.7-239.8,1370.8-247,1377.7z M-142,1377.7c-9.4,8.9-23.3,12.8-39.6,12.8c-3.6,0-6.9-0.2-9.4-0.5v43.6h-27.3v-120.2
			c8.5-1.4,20.4-2.5,37.2-2.5c17,0,29.1,3.3,37.2,9.8c7.8,6.1,13,16.3,13,28.2C-130.8,1360.7-134.8,1370.8-142,1377.7z
			 M-468.8,1282.9V937.7h250.2v110.5c0,6,4.8,10.8,10.8,10.8h95.4l0,223.8H-468.8z"/>
	</g>
	<g>
		<path class="st0" d="M-310.1,1211.3c-8,3.6-23.3,6.6-40.5,6.6c-47.1,0-77.2-28.6-77.2-74.5c0-42.6,29.2-77.5,83.5-77.5
			c11.9,0,25,2.1,34.6,5.7l-7.2,33.7c-5.4-2.4-13.4-4.5-25.3-4.5c-23.9,0-39.4,17-39.1,40.8c0,26.8,17.9,40.8,40,40.8
			c10.7,0,19.1-1.8,25.9-4.5L-310.1,1211.3z"/>
		<path class="st0" d="M-254.4,1108.4v27.4h26.2v11.8h-26.2v27.6h-12.3v-27.6H-293v-11.8h26.2v-27.4H-254.4z"/>
		<path class="st0" d="M-179.6,1108.4v27.4h26.2v11.8h-26.2v27.6h-12.3v-27.6h-26.3v-11.8h26.3v-27.4H-179.6z"/>
	</g>
</g>
</svg>
