<?xml version="1.0" encoding="utf-8"?>
<!-- Generator: Adobe Illustrator 19.0.0, SVG Export Plug-In . SVG Version: 6.00 Build 0)  -->
<svg version="1.1" id="Layer_1" xmlns="http://www.w3.org/2000/svg" xmlns:xlink="http://www.w3.org/1999/xlink" x="0px" y="0px"
	 viewBox="-585 935.9 512 512" style="enable-background:new -585 935.9 512 512;" xml:space="preserve">
<style type="text/css">
	.st0{fill:#CCCCCC;}
</style>
<path class="st0" d="M-546.8,935.9c-4.7,0-8.2,3.8-7.8,8.5l39.7,445c0.4,4.7,4.5,9.6,9,10.8l168.3,46.7c4.5,1.3,12,1.3,16.5,0
	l168.9-46.8c4.5-1.3,8.6-6.1,9-10.8l39.7-444.9c0.4-4.7-3.1-8.5-7.8-8.5H-546.8z M-187.9,1038c-0.4,4.2-1,11.4-1.4,16.1l-1,11.7
	c-0.4,4.7-1,11.4-1.3,14.9c-0.3,3.5-0.6,6.4-0.7,6.4c-0.1,0-3.9,0-8.7,0h-119.4c-4.7,0-8.6,0-8.6,0s-3.9,0-8.6,0h-62.9
	c-4.7,0-8.2,3.8-7.8,8.5l3.7,41c0.4,4.7,4.6,8.5,9.3,8.5h57.7c4.7,0,8.6,0,8.6,0s3.9,0,8.6,0h99.1c4.7,0,12,0,16.2,0
	c4.2,0,7.3,3.4,6.9,7.6c-0.4,4.2-1,11.4-1.5,16.1l-11.8,132.2c-0.4,4.7-1,10.7-1.2,13.3c-0.2,2.6-4.1,5.8-8.7,7.1l-99.5,27.6
	c-4.5,1.3-8.3,2.3-8.4,2.3c-0.1,0-3.8-1-8.4-2.3l-99.6-27.6c-4.5-1.3-8.6-6.1-9-10.8l-6.4-71.9c-0.4-4.7,3.1-8.5,7.8-8.5h9.1
	c4.7,0,12.4,0,17.1,0h13.6c4.7,0,8.9,3.8,9.3,8.5l2.5,28.2c0.4,4.7,4.5,9.5,9,10.8l46.6,12.6c4.5,1.2,8.3,2.2,8.3,2.2s3.8-1,8.3-2.2
	l46.7-12.6c4.5-1.2,8.6-6.1,9-10.8l5.1-56.4c0.4-4.7-3.1-8.5-7.8-8.5h-52.5c-4.7,0-8.6,0-8.6,0s-3.9,0-8.6,0h-109.5
	c-4.7,0-8.9-3.8-9.3-8.5l-12.4-139.1c-0.4-4.7-1.1-11.9-1.4-16.1c-0.4-4.2,3.2-7.6,7.9-7.6h124.8c4.7,0,8.6,0,8.6,0s3.9,0,8.6,0
	h124.6C-191.1,1030.4-187.6,1033.8-187.9,1038z"/>
</svg>
