<?xml version="1.0" encoding="utf-8"?>
<!-- Generator: Adobe Illustrator 19.0.0, SVG Export Plug-In . SVG Version: 6.00 Build 0)  -->
<svg version="1.1" id="Capa_1" xmlns="http://www.w3.org/2000/svg" xmlns:xlink="http://www.w3.org/1999/xlink" x="0px" y="0px"
	 viewBox="-74 166.6 461.4 461.4" style="enable-background:new -74 166.6 461.4 461.4;" xml:space="preserve">
<style type="text/css">
	.st0{fill:#F39C12;}
</style>
<g>
	<g>
		<path class="st0" d="M150.7,615.2c7.8-114.4,5.7-353.5,5.7-372.2c0-42.2-3.7-76.4-8.3-76.4c-4.6,0-8.3,34.2-8.3,76.4
			c0,18.6,3.6,314.4,6.6,371.9C147.2,632.2,149.6,632.4,150.7,615.2z M145,204.4c0-11.9,1.5-21.5,3.3-21.5c1.8,0,3.3,9.6,3.3,21.5
			c0,11.9-1.5,21.5-3.3,21.5C146.4,225.9,145,216.3,145,204.4z"/>
	</g>
</g>
</svg>
