<?xml version="1.0" encoding="utf-8"?>
<!-- Generator: Adobe Illustrator 19.0.0, SVG Export Plug-In . SVG Version: 6.00 Build 0)  -->
<svg version="1.1" id="Layer_1" xmlns="http://www.w3.org/2000/svg" xmlns:xlink="http://www.w3.org/1999/xlink" x="0px" y="0px"
	 viewBox="-935 585.8 512 512" style="enable-background:new -935 585.8 512 512;" xml:space="preserve">
<style type="text/css">
	.st0{fill:#CCCCCC;}
</style>
<path class="st0" d="M-819,881.8c0-30.3,24.7-55,55-55h170c13.8,0,25-11.2,25-25v-141c0-41.4-33.6-75-75-75h-70
	c-41.4,0-75,33.6-75,75v41h110c8.3,0,15,6.7,15,15s-6.7,15-15,15h-181c-41.4,0-75,33.6-75,75v70c0,41.4,33.6,75,75,75h41V881.8z
	 M-714,661.8c-8.3,0-15-6.7-15-15s6.7-15,15-15s15,6.7,15,15S-705.7,661.8-714,661.8z"/>
<path class="st0" d="M-498,731.8h-41v70c0,30.3-24.7,55-55,55h-170c-13.8,0-25,11.2-25,25v141c0,41.4,33.6,75,75,75h70
	c41.4,0,75-33.6,75-75v-41h-110c-8.3,0-15-6.7-15-15s6.7-15,15-15h181c41.4,0,75-33.6,75-75v-70C-423,765.4-456.6,731.8-498,731.8z
	 M-644,1021.8c8.3,0,15,6.7,15,15s-6.7,15-15,15s-15-6.7-15-15S-652.3,1021.8-644,1021.8z"/>
</svg>
